# xmcd
#
# Track frame offsets:
#	150
#	19347
#	36387
#	50785
#	66797
#	79432
#	95905
#	107645
#	123330
#	146732
#	162150
#	177160
#	191682
#	210722
#	221775
#
# Disc length: 3142 seconds
#
# Revision: 1
# Processed by: cddbd v1.5.1PL0 Copyright (c) Steve Scherf et al.
# Submitted via: CDex 1.50Beta5
#
DISCID=eb0c440f
DTITLE=Various Artist - Let's sing jazz songs
DYEAR=1900
DGENRE=Jazz
TTITLE0=スザンナ・マッコークル/黄金の雨
TTITLE1=シャーリー・ホーン/オール・オブ・ミー
TTITLE2=スザンナ・マッコークル/君にこそ心ときめく
TTITLE3=スザンナ・マッコークル/九月の雨
TTITLE4=アンデイ・ウイリアムス/酒とバラの日々
TTITLE5=トニー・ベネット/ザ・シャドウ・オブ・ユア・スマイル
TTITLE6=トニー・ベネット/ジャスト・イン・タイム
TTITLE7=ドリス・デイ/デイ・バイ・デイ
TTITLE8=スザンナ・マッコークル/時のすぎゆくまま
TTITLE9=ローズマリー・クルーニー/虹の彼方に
TTITLE10=ドリス・デイ/瞳は君ゆえに
TTITLE11=ドリス・デイ/二人でお茶を
TTITLE12=トニー・ベネット/フライ・ミー・ツーザ・ムーン
TTITLE13=アンデイ・ウイリアムス/ブルーレデイに紅いバラ
TTITLE14=ローズマリー・クルーニー/星に願いを
EXTD=
EXTT0=
EXTT1=
EXTT2=
EXTT3=
EXTT4=
EXTT5=
EXTT6=
EXTT7=
EXTT8=
EXTT9=
EXTT10=
EXTT11=
EXTT12=
EXTT13=
EXTT14=
PLAYORDER=
